<svg id="visual" viewBox="0 0 900 600" width="900" height="600" xmlns="http://www.w3.org/2000/svg" xmlns:xlink="http://www.w3.org/1999/xlink" version="1.1"><rect x="0" y="0" width="900" height="600" fill="#fff"></rect><defs><linearGradient id="grad1_0" x1="33.3%" y1="0%" x2="100%" y2="100%"><stop offset="20%" stop-color="#cd9900" stop-opacity="1"></stop><stop offset="80%" stop-color="#cd9900" stop-opacity="1"></stop></linearGradient></defs><defs><linearGradient id="grad1_1" x1="33.3%" y1="0%" x2="100%" y2="100%"><stop offset="20%" stop-color="#cd9900" stop-opacity="1"></stop><stop offset="80%" stop-color="#eeca8d" stop-opacity="1"></stop></linearGradient></defs><defs><linearGradient id="grad1_2" x1="33.3%" y1="0%" x2="100%" y2="100%"><stop offset="20%" stop-color="#ffffff" stop-opacity="1"></stop><stop offset="80%" stop-color="#eeca8d" stop-opacity="1"></stop></linearGradient></defs><defs><linearGradient id="grad2_0" x1="0%" y1="0%" x2="66.7%" y2="100%"><stop offset="20%" stop-color="#cd9900" stop-opacity="1"></stop><stop offset="80%" stop-color="#cd9900" stop-opacity="1"></stop></linearGradient></defs><defs><linearGradient id="grad2_1" x1="0%" y1="0%" x2="66.7%" y2="100%"><stop offset="20%" stop-color="#eeca8d" stop-opacity="1"></stop><stop offset="80%" stop-color="#cd9900" stop-opacity="1"></stop></linearGradient></defs><defs><linearGradient id="grad2_2" x1="0%" y1="0%" x2="66.7%" y2="100%"><stop offset="20%" stop-color="#eeca8d" stop-opacity="1"></stop><stop offset="80%" stop-color="#ffffff" stop-opacity="1"></stop></linearGradient></defs><g transform="translate(900, 0)"><path d="M0 378.6C-31.4 344.4 -62.7 310.1 -96.1 295.8C-129.5 281.4 -164.8 287 -203.4 279.9C-241.9 272.9 -283.6 253.3 -306.3 222.5C-328.9 191.8 -332.6 149.9 -341.4 110.9C-350.3 72 -364.4 36 -378.6 0L0 0Z" fill="#f9e4c5"></path><path d="M0 252.4C-20.9 229.6 -41.8 206.8 -64.1 197.2C-86.3 187.6 -109.9 191.3 -135.6 186.6C-161.3 181.9 -189.1 168.9 -204.2 148.4C-219.3 127.9 -221.7 99.9 -227.6 74C-233.5 48 -243 24 -252.4 0L0 0Z" fill="#dfb154"></path><path d="M0 126.2C-10.5 114.8 -20.9 103.4 -32 98.6C-43.2 93.8 -54.9 95.7 -67.8 93.3C-80.6 91 -94.5 84.4 -102.1 74.2C-109.6 63.9 -110.9 50 -113.8 37C-116.8 24 -121.5 12 -126.2 0L0 0Z" fill="#cd9900"></path></g><g transform="translate(0, 600)"><path d="M0 -378.6C42.2 -379.6 84.4 -380.7 117 -360.1C149.6 -339.4 172.5 -297.1 192.2 -264.5C211.9 -232 228.4 -209.1 258.1 -187.5C287.7 -165.9 330.6 -145.7 352.8 -114.6C375.1 -83.6 376.9 -41.8 378.6 0L0 0Z" fill="#f9e4c5"></path><path d="M0 -252.4C28.1 -253.1 56.3 -253.8 78 -240C99.7 -226.3 115 -198.1 128.1 -176.4C141.3 -154.6 152.3 -139.4 172.1 -125C191.8 -110.6 220.4 -97.1 235.2 -76.4C250.1 -55.7 251.2 -27.9 252.4 0L0 0Z" fill="#dfb154"></path><path d="M0 -126.2C14.1 -126.5 28.1 -126.9 39 -120C49.9 -113.1 57.5 -99 64.1 -88.2C70.6 -77.3 76.1 -69.7 86 -62.5C95.9 -55.3 110.2 -48.6 117.6 -38.2C125 -27.9 125.6 -13.9 126.2 0L0 0Z" fill="#cd9900"></path></g></svg>